PathFileType	4	(X/Y/Z)	C:/Users/opensim2020/Desktop/walking_exp_matlab/subject03_walking17_run.trc	
DataRate	CameraRate	NumFrames	NumMarkers	Units	OrigDataRate	OrigDataStartFrame	OrigNumFrames	
100.00	100.00	8	50	mm	100.00	237	132	
Frame#	Time	RTOE			LTHI			RWRB			LTIB			RELB			RUPA			RKNE			RTHI			RASI			RFRM			RWRA			RSHO			STRN			LFRM			CLAV			LWRB			LASI			RFHD			LFIN			LSHO			RTIB			LWRA			RBHD			LHEE			RANK			RHEE			C7			RFIN			LBHD			LUPA			LTOE			RBAK			LELB			LFHD			RPSI			LPSI			T10			LKNE			LANK			*39			*40			*41			*42			*43			*44			*45			*46			*47			*48			*49			
		X1	Y1	Z1	X2	Y2	Z2	X3	Y3	Z3	X4	Y4	Z4	X5	Y5	Z5	X6	Y6	Z6	X7	Y7	Z7	X8	Y8	Z8	X9	Y9	Z9	X10	Y10	Z10	X11	Y11	Z11	X12	Y12	Z12	X13	Y13	Z13	X14	Y14	Z14	X15	Y15	Z15	X16	Y16	Z16	X17	Y17	Z17	X18	Y18	Z18	X19	Y19	Z19	X20	Y20	Z20	X21	Y21	Z21	X22	Y22	Z22	X23	Y23	Z23	X24	Y24	Z24	X25	Y25	Z25	X26	Y26	Z26	X27	Y27	Z27	X28	Y28	Z28	X29	Y29	Z29	X30	Y30	Z30	X31	Y31	Z31	X32	Y32	Z32	X33	Y33	Z33	X34	Y34	Z34	X35	Y35	Z35	X36	Y36	Z36	X37	Y37	Z37	X38	Y38	Z38	X39	Y39	Z39	X40	Y40	Z40	X41	Y41	Z41	X42	Y42	Z42	X43	Y43	Z43	X44	Y44	Z44	X45	Y45	Z45	X46	Y46	Z46	X47	Y47	Z47	X48	Y48	Z48	X49	Y49	Z49	X50	Y50	Z50	

34	0.330	298.14133	-772.26892	96.10867	55.66774	-855.54230	580.87427	458.26596	-873.83618	888.15601	99.49969	-1012.40424	256.10693	471.26331	-967.34491	1094.76746	446.52573	-926.08691	1184.95679	353.50815	-584.13385	502.27802	382.67255	-715.65607	622.73419	345.17877	-767.53931	871.80035	465.78778	-911.60736	978.64862	430.52994	-839.11438	917.71588	357.59464	-788.43597	1334.14355	233.51660	-670.36273	1108.52820	32.71405	-603.18140	1064.63452	225.65260	-696.36115	1281.34302	105.24900	-523.79254	1068.04932	110.39610	-760.29596	869.69293	296.71521	-734.21729	1570.86731	174.96236	-475.00369	1042.90430	66.30352	-718.15149	1324.11829	351.09378	-701.06885	360.48044	148.26820	-559.95093	1082.94019	271.08527	-835.51190	1491.83691	187.48077	-1203.89355	95.79903	310.47864	-855.68939	207.81429	258.53815	-912.69934	208.61140	184.46613	-820.94061	1354.50061	462.01395	-814.07074	848.04675	142.83192	-809.22015	1495.21765	-33.49584	-702.56732	1149.16650	158.71494	-1025.63684	32.65118	272.23880	-902.05823	1205.03992	-45.81993	-679.22687	1052.24719	166.78700	-703.03430	1574.65393	305.04346	-919.91083	925.38147	157.21873	-916.00659	925.25995	212.55354	-889.54095	1058.03979	87.61043	-870.49194	401.36667	147.56696	-1149.78577	105.11784							198.03227	-809.76019	1603.26453																								 
35	0.340	297.53992	-686.62738	87.92540	57.18452	-830.86090	587.65607	457.70526	-847.31213	901.54962	99.22448	-1002.77374	267.46951	469.29282	-941.31207	1108.17249	444.70569	-898.06000	1196.86780	354.86578	-544.73688	515.57672	384.38351	-676.86133	634.75531	346.67908	-732.10114	880.33405	464.92575	-885.55945	992.20923	431.30734	-811.89447	931.51794	357.62595	-756.29614	1341.92249	236.36911	-635.93176	1115.23901	36.87997	-564.98059	1083.15808	227.74719	-662.53571	1288.02991	110.56836	-488.35641	1094.70496	112.48733	-723.30695	873.94214	297.80789	-701.31982	1577.42383	183.51094	-439.72537	1080.68420	69.04984	-683.61011	1332.60510	353.89896	-645.55450	359.31567	151.22307	-525.45868	1112.23108	272.06924	-802.23236	1498.07703	185.75777	-1195.30908	110.85349	312.99561	-782.21338	189.93347	261.62558	-839.41388	184.77562	185.52339	-786.95648	1360.62622	463.70285	-787.51599	861.96271	143.91629	-775.80603	1501.34412	-29.44312	-663.01703	1157.89087	158.97127	-1024.27917	32.54537	270.30359	-868.28998	1211.92932	-42.47320	-637.99152	1062.60242	167.66835	-670.14355	1580.92480	304.77182	-884.77362	932.67120	157.57614	-879.45453	931.18628	211.19942	-853.96216	1063.78479	88.92715	-857.35144	409.55981	146.00624	-1141.92053	117.24997							198.93924	-777.07117	1609.29797																								 
36	0.350	296.74573	-602.16650	81.41591	58.97139	-804.80731	595.63733	456.68561	-819.43713	914.60022	99.20430	-990.98334	280.44849	467.07184	-914.15442	1121.17896	442.77435	-869.13995	1208.73267	356.33813	-506.66345	526.24536	386.41971	-638.75958	646.48090	348.07443	-695.73785	889.34857	463.57928	-858.24866	1005.26453	431.11307	-783.56464	944.72375	357.83337	-723.75140	1349.95361	239.15063	-601.43420	1122.44080	40.51271	-528.27448	1101.04529	229.89037	-628.55878	1295.23755	115.40446	-455.15189	1119.84558	114.32978	-685.64508	878.84155	298.96991	-668.21674	1584.52466	190.23969	-407.63617	1116.57068	71.97855	-648.93475	1341.43982	356.52759	-590.87305	357.54468	152.98041	-494.01379	1139.51123	273.06598	-768.70532	1504.72424	184.37639	-1183.29797	127.06998	316.03290	-707.79736	173.25569	265.33603	-764.55957	162.92650	186.55057	-753.00909	1367.45361	464.52383	-759.47546	875.49866	145.01544	-742.16315	1507.85693	-25.27872	-623.60284	1167.14795	159.32574	-1022.36749	32.46051	268.73965	-834.21478	1219.33704	-38.81563	-598.26355	1073.08093	168.73553	-637.00769	1587.86743	304.54095	-848.79126	940.22339	157.84836	-842.34802	937.39661	210.04805	-818.08466	1070.09460	90.02101	-842.28400	419.72162	144.71962	-1131.67126	131.25293							199.81477	-743.90985	1616.10059																								 
37	0.360	296.46176	-519.38586	76.34951	60.78711	-777.70465	604.48889	455.14050	-790.19550	927.01587	98.84802	-977.34003	294.83118	464.72000	-885.73206	1133.50159	441.03918	-839.21527	1220.33691	357.89661	-469.87271	534.72595	388.95438	-601.11053	657.65356	349.25372	-658.81226	898.41156	461.71463	-829.56146	1017.73547	430.37238	-754.04034	957.31213	358.24673	-690.68915	1358.08032	242.28107	-566.20978	1130.16895	44.20844	-493.16193	1117.43030	232.07219	-594.47876	1302.76123	120.12878	-423.90274	1143.15381	116.17524	-647.57800	884.11652	299.77457	-635.27075	1591.86829	195.60031	-378.38007	1149.95935	74.95896	-614.20123	1350.15771	359.68515	-537.76135	355.28018	154.29927	-464.75381	1164.09692	274.21295	-735.52014	1511.73621	183.37978	-1167.40259	143.87241	319.11908	-633.20007	158.49162	269.35852	-689.16010	143.70284	187.79442	-718.64868	1374.57922	464.81012	-730.16760	888.42920	146.12790	-708.56335	1514.54187	-21.44406	-584.75421	1176.59363	159.19319	-1020.12854	32.33123	267.55817	-800.00262	1227.11487	-35.90178	-559.31433	1083.54358	169.88675	-603.70331	1594.97778	304.26871	-812.11670	947.92065	158.19398	-804.13629	943.68176	208.97374	-782.16882	1076.72021	91.41264	-825.33136	431.01968	144.00455	-1118.21252	145.89499							200.67422	-710.84064	1622.85059																								 
38	0.370	296.14584	-438.73761	73.01863	62.96557	-749.57526	613.74780	453.25134	-759.54364	938.60358	99.14535	-961.43542	309.47092	462.26450	-856.03320	1145.03638	439.68851	-808.13318	1231.42249	359.66348	-434.45703	540.63116	391.68375	-563.63104	667.72675	350.23694	-621.51062	907.17560	459.73306	-799.46436	1029.33264	429.02008	-723.25537	969.13977	358.99252	-657.32037	1366.17444	245.13826	-531.23309	1137.69263	47.52962	-459.64825	1132.98059	234.25601	-560.54852	1310.28589	124.83121	-394.73126	1164.41370	117.96147	-608.90778	889.88550	300.78073	-601.90619	1599.24744	200.02745	-351.65994	1180.26477	78.08482	-579.51135	1358.48425	363.42105	-486.25961	352.36411	155.80951	-437.45291	1185.67932	275.29053	-702.05499	1518.81226	182.61218	-1147.29883	160.48445	322.30466	-558.90369	145.97569	272.76605	-613.21362	126.76949	189.11305	-684.08887	1381.77832	464.46622	-699.43658	900.36847	147.30630	-674.90057	1521.17517	-17.95364	-546.52710	1185.90979	158.56258	-1017.62927	31.76781	266.81235	-765.41650	1235.02808	-33.45291	-521.25519	1093.78308	170.88225	-570.28290	1601.91418	304.04651	-774.78693	955.38434	158.75417	-765.69946	950.07861	208.13112	-745.92853	1083.35498	93.11862	-806.42133	442.97406	143.29309	-1101.16602	159.33578							201.51309	-677.78571	1629.41748																								 
39	0.380	296.57037	-360.56512	71.46783	65.60197	-720.53638	622.91541	451.32159	-727.50024	949.19104	99.42126	-942.78967	324.02182	459.92581	-824.96753	1155.48523	438.90042	-776.12622	1241.59351	361.10013	-401.12723	543.48883	394.44229	-526.68408	675.67816	351.00977	-584.05823	915.32220	457.64050	-767.96185	1039.97144	427.41202	-691.27081	979.80780	359.98428	-623.30615	1373.67126	248.14700	-496.08743	1145.33606	50.66231	-427.63696	1147.07629	236.49336	-526.65863	1317.53809	129.25757	-366.98605	1183.22461	119.81916	-570.30804	895.69141	301.54230	-568.47614	1606.19812	203.79910	-326.99835	1206.81836	81.29851	-544.99121	1366.22473	367.40155	-436.42773	349.32559	157.47697	-411.50900	1204.24829	276.41815	-668.51929	1525.81067	181.37669	-1122.59570	176.07338	325.81549	-486.21948	136.12506	276.58176	-538.80707	113.63442	190.59146	-649.49072	1388.71960	463.73477	-667.43707	911.17517	148.48500	-641.21985	1527.49500	-14.63457	-508.91724	1194.95642	158.23581	-1015.95056	30.65690	266.85156	-729.79395	1242.18250	-31.41585	-483.92749	1103.33447	171.83864	-536.63324	1608.28809	303.89359	-736.81262	962.34845	159.46092	-726.66541	956.28253	207.45180	-709.60870	1089.85474	95.59278	-786.00537	455.01456	141.56184	-1080.17188	170.16783							202.15132	-644.25635	1636.08215																								 
40	0.390	297.90158	-285.99954	71.43219	68.64936	-690.84491	631.45428	449.70975	-694.08813	958.67572	99.78207	-920.89783	337.28430	457.88684	-792.67609	1164.47461	438.62167	-743.42279	1250.68152	362.47852	-369.77264	543.31793	396.58221	-491.02499	679.94171	351.62128	-546.66193	922.45105	455.91843	-735.23859	1049.46289	425.85791	-657.79858	989.67096	361.31100	-588.97534	1380.44788	251.12007	-460.86465	1152.40686	53.52756	-396.85602	1159.27087	238.71021	-492.89175	1324.14734	133.48984	-339.92062	1198.85022	121.49924	-530.95203	901.48120	302.12952	-534.99219	1612.35120	207.27603	-302.86673	1228.99170	84.67420	-510.70840	1373.22620	370.69626	-388.81479	346.46017	158.66037	-385.50598	1219.55664	277.59174	-635.06201	1532.41357	177.87418	-1093.99988	190.95044	329.42419	-416.05942	129.20087	280.28058	-466.67047	104.34753	192.20517	-614.80518	1394.94385	462.54532	-633.57404	921.06244	149.73997	-607.68408	1533.21594	-11.65404	-472.10947	1203.40857	157.55740	-1011.71716	31.01624	267.38052	-694.48383	1249.18750	-29.68857	-447.02109	1112.10583	172.80661	-502.85272	1613.69470	303.75235	-698.53564	968.65564	160.17073	-687.26630	962.30841	206.91560	-673.38611	1095.97925	98.93060	-764.04272	467.12683	137.04492	-1055.28479	178.57858							202.73705	-610.20959	1642.38013																								 
41	0.400	300.10684	-216.15985	72.51740	71.92902	-660.57928	639.20068	448.72083	-659.25671	966.91687	100.16800	-896.07202	348.91721	456.56787	-759.35547	1171.79773	439.29971	-709.92371	1258.13354	364.32611	-339.58173	541.19293	397.77591	-457.78848	680.39020	352.17474	-509.11182	928.35986	454.87784	-701.38068	1057.62878	424.67822	-623.40253	998.22913	362.97723	-554.20941	1385.97571	253.99146	-425.62973	1158.70447	56.20324	-366.26767	1169.10571	240.88716	-459.28793	1329.75354	137.57425	-312.45786	1210.65332	122.81390	-491.87088	905.81464	302.96738	-501.02734	1617.51953	210.64281	-278.39334	1245.75671	88.12170	-476.78751	1379.28967	373.20053	-343.73080	343.80426	159.99321	-359.40213	1231.04773	278.84494	-601.70807	1538.16882	169.75360	-1065.55554	206.12476	332.84958	-349.76471	125.11669	283.49075	-398.31189	98.84267	194.12979	-580.31116	1400.28003	461.27536	-598.11804	929.55646	151.04718	-574.13074	1537.92834	-8.80624	-435.94559	1210.98352	158.27098	-1001.66541	36.49478	268.56470	-659.18884	1255.49524	-28.21139	-410.74768	1119.56628	173.85068	-468.95367	1617.83325	303.70581	-660.11011	974.29462	160.54422	-647.67725	967.79022	206.72505	-637.16669	1101.41479	101.86804	-741.04645	478.62241	130.39110	-1028.05530	186.86469							203.26912	-575.99255	1647.70728																								 
